<svg width="201" height="183" viewBox="0 0 201 183" fill="none" xmlns="http://www.w3.org/2000/svg">
<circle cx="101.165" cy="91.6855" r="72.9786" transform="rotate(90 101.165 91.6855)" fill="#764ABC"/>
<circle cx="176.366" cy="91.6853" r="13.243" transform="rotate(90 176.366 91.6853)" fill="#764ABC" stroke="white" stroke-width="5"/>
<circle cx="135.987" cy="156.885" r="23.6156" transform="rotate(90 135.987 156.885)" fill="#764ABC" stroke="white" stroke-width="5"/>
<path d="M112.371 25.9305C112.371 12.9695 122.965 2.50006 135.987 2.50006C149.009 2.50006 159.603 12.9695 159.603 25.9305C159.603 38.8915 149.009 49.3609 135.987 49.3609C122.965 49.3609 112.371 38.8915 112.371 25.9305Z" fill="#764ABC" stroke="white" stroke-width="5"/>
<path d="M181.646 141.881C181.646 146.507 185.494 150.123 190.073 150.123C194.652 150.123 198.5 146.507 198.5 141.881C198.5 137.255 194.652 133.639 190.073 133.639C185.494 133.639 181.646 137.255 181.646 141.881Z" fill="#764ABC" stroke="white" stroke-width="5"/>
<path d="M181.646 41.4894C181.646 36.8632 185.494 33.2474 190.073 33.2474C194.652 33.2474 198.5 36.8632 198.5 41.4894C198.5 46.1155 194.652 49.7314 190.073 49.7314C185.494 49.7314 181.646 46.1155 181.646 41.4894Z" fill="#764ABC" stroke="white" stroke-width="5"/>
<circle cx="25.593" cy="91.3149" r="13.243" transform="rotate(-90 25.593 91.3149)" fill="#764ABC" stroke="white" stroke-width="5"/>
<circle cx="65.9721" cy="26.1156" r="23.6156" transform="rotate(-90 65.9721 26.1156)" fill="#764ABC" stroke="white" stroke-width="5"/>
<path d="M89.5877 157.07C89.5877 170.031 78.9938 180.5 65.9721 180.5C52.9503 180.5 42.3564 170.031 42.3564 157.07C42.3564 144.109 52.9503 133.639 65.9721 133.639C78.9938 133.639 89.5877 144.109 89.5877 157.07Z" fill="#764ABC" stroke="white" stroke-width="5"/>
<path d="M20.3136 41.1189C20.3136 36.4928 16.4652 32.8769 11.8864 32.8769C7.30756 32.8769 3.45917 36.4928 3.45917 41.1189C3.45917 45.745 7.30756 49.3609 11.8864 49.3609C16.4652 49.3609 20.3136 45.745 20.3136 41.1189Z" fill="#764ABC" stroke="white" stroke-width="5"/>
<path d="M20.3136 141.511C20.3136 146.137 16.4652 149.753 11.8864 149.753C7.30756 149.753 3.45917 146.137 3.45917 141.511C3.45917 136.885 7.30756 133.269 11.8864 133.269C16.4652 133.269 20.3136 136.885 20.3136 141.511Z" fill="#764ABC" stroke="white" stroke-width="5"/>
</svg>
