<?xml version="1.0" standalone="no"?>
<!DOCTYPE svg PUBLIC "-//W3C//DTD SVG 20010904//EN"
 "http://www.w3.org/TR/2001/REC-SVG-20010904/DTD/svg10.dtd">
<svg version="1.0" xmlns="http://www.w3.org/2000/svg"
 width="896.000000pt" height="896.000000pt" viewBox="0 0 896.000000 896.000000"
 preserveAspectRatio="xMidYMid meet">
<metadata>
Created by potrace 1.14, written by Peter Selinger 2001-2017
</metadata>
<g transform="translate(0.000000,896.000000) scale(0.100000,-0.100000)"
fill="#000000" stroke="none">
<path d="M5159 7837 c-91 -36 -140 -66 -186 -115 -29 -30 -53 -61 -53 -68 0
-8 -4 -14 -8 -14 -8 0 -34 -61 -39 -95 -2 -11 -7 -31 -13 -45 -8 -23 -27 -93
-35 -130 -2 -8 -27 -100 -55 -205 -55 -201 -86 -319 -120 -450 -12 -44 -27
-100 -35 -125 -8 -25 -16 -56 -19 -70 -2 -14 -20 -83 -39 -155 -39 -141 -56
-204 -58 -220 -1 -5 -6 -21 -11 -35 -5 -14 -12 -34 -14 -45 -2 -11 -29 -112
-59 -225 -31 -113 -58 -213 -60 -222 -2 -10 -16 -62 -31 -115 -14 -54 -28
-105 -29 -113 -2 -8 -4 -15 -5 -15 -1 0 -3 -7 -5 -15 -1 -8 -15 -60 -30 -115
-15 -55 -29 -107 -31 -115 -11 -44 -35 -134 -54 -205 -12 -44 -24 -91 -26
-104 -3 -14 -7 -28 -10 -32 -4 -6 -16 -52 -50 -184 -3 -11 -7 -31 -10 -44 -3
-14 -7 -28 -10 -33 -3 -4 -7 -16 -9 -25 -2 -10 -13 -54 -25 -98 -12 -44 -23
-84 -24 -90 -1 -5 -5 -19 -9 -30 -3 -11 -8 -31 -11 -45 -3 -14 -19 -74 -36
-135 -17 -60 -33 -121 -36 -135 -2 -14 -13 -54 -24 -90 -10 -36 -35 -128 -55
-205 -20 -77 -45 -169 -55 -205 -11 -36 -21 -76 -24 -90 -3 -14 -21 -83 -41
-155 -20 -71 -38 -137 -40 -145 -2 -8 -28 -108 -59 -221 -31 -114 -57 -215
-59 -225 -2 -11 -7 -26 -10 -34 -4 -8 -11 -33 -16 -55 -5 -22 -15 -58 -21 -80
-6 -22 -13 -48 -15 -58 -2 -10 -7 -27 -10 -37 -3 -10 -8 -28 -10 -39 -3 -12
-7 -30 -9 -40 -3 -11 -10 -29 -16 -40 -6 -12 -9 -21 -6 -21 3 0 -4 -33 -16
-72 -11 -40 -21 -80 -23 -88 -4 -22 -35 -132 -42 -150 -3 -8 -7 -24 -8 -35 -2
-11 -11 -47 -20 -79 -29 -101 -21 -195 24 -288 74 -150 203 -229 367 -223 84
3 109 7 120 18 4 4 16 7 26 7 10 0 18 5 18 11 0 5 4 8 9 5 5 -3 14 1 21 9 7 8
16 15 21 15 17 0 95 85 122 132 21 37 75 203 102 318 19 79 57 228 62 240 7
18 10 28 16 55 3 11 12 47 21 80 9 33 18 67 20 75 2 8 29 110 61 225 31 116
58 217 60 225 2 8 15 58 30 110 14 52 28 104 30 115 3 11 25 94 49 185 62 227
66 244 63 251 -1 3 4 13 12 22 7 10 11 17 8 17 -3 0 1 24 10 53 8 28 26 95 39
147 14 52 26 102 29 110 11 38 76 278 80 300 3 14 9 34 12 45 4 11 8 25 9 30
1 6 7 30 15 55 7 25 13 50 15 55 1 6 12 46 23 90 12 44 23 88 26 97 2 9 13 50
24 90 11 40 22 82 24 93 2 11 7 27 10 35 6 14 35 124 42 160 2 8 8 29 15 45 6
17 11 30 10 30 -1 0 1 12 5 26 3 14 8 34 10 45 2 10 4 19 5 19 1 0 3 7 5 15 2
8 15 58 30 110 29 105 33 121 40 151 2 11 7 29 10 39 3 10 8 27 10 37 2 10 9
36 15 58 6 22 16 58 21 80 5 22 11 45 13 50 5 15 33 116 40 145 3 8 14 51 26
95 12 44 33 123 46 175 14 52 34 124 44 160 11 36 21 76 24 90 2 14 9 37 14
51 6 14 13 39 16 55 5 28 20 86 81 307 14 53 28 105 30 115 7 31 64 243 79
293 8 27 15 53 16 57 0 4 5 23 10 42 5 19 10 38 10 42 1 4 6 22 11 40 6 18 12
40 14 48 2 8 16 62 30 118 22 85 26 118 21 176 -13 160 -123 296 -281 346 -49
16 -182 20 -216 7z"/>
<path d="M2429 6869 c-7 -4 -16 -6 -20 -3 -4 2 -10 0 -14 -6 -3 -5 -14 -10
-24 -10 -10 0 -40 -16 -67 -35 -44 -32 -2184 -2162 -2184 -2175 0 -3 489 -494
1087 -1092 865 -863 1097 -1090 1134 -1107 56 -25 113 -38 157 -37 18 1 32 -3
32 -7 0 -5 4 -6 8 -3 5 3 24 8 43 11 63 11 124 38 186 84 34 25 63 49 63 53 0
4 14 27 30 51 17 25 30 51 30 59 0 8 3 18 7 22 18 18 26 148 13 208 -12 59
-46 132 -74 163 -10 11 -372 374 -804 807 l-787 788 788 787 c433 433 787 790
787 794 0 4 4 9 8 11 4 2 17 17 28 33 73 107 82 270 21 395 -34 70 -113 144
-192 182 -61 28 -82 32 -157 34 -47 1 -92 -2 -99 -7z"/>
<path d="M6310 6871 c-31 -7 -51 -15 -100 -43 -8 -4 -24 -12 -35 -17 -11 -5
-34 -24 -51 -43 -91 -98 -123 -176 -120 -293 2 -79 29 -185 47 -185 5 0 9 -8
9 -17 0 -10 362 -380 807 -825 l808 -808 -793 -792 c-435 -436 -802 -809 -815
-828 -103 -155 -86 -348 43 -491 30 -33 59 -59 66 -59 7 0 14 -4 16 -8 2 -4
28 -18 58 -31 61 -27 186 -36 249 -19 42 11 126 52 146 70 55 52 2155 2154
2155 2158 0 3 -480 484 -1066 1070 -587 586 -1074 1073 -1082 1083 -9 9 -22
17 -28 17 -7 0 -14 4 -16 8 -1 4 -28 18 -58 31 -59 25 -176 36 -240 22z"/>
</g>
</svg>
